<svg xmlns="http://www.w3.org/2000/svg" viewBox="0 0 200 200" width="200" height="200">
  <!-- Gradient Background -->
  <defs>
    <linearGradient id="bgGradient" x1="0%" y1="0%" x2="100%" y2="100%">
      <stop offset="0%" stop-color="#0A192F" />
      <stop offset="100%" stop-color="#112240" />
    </linearGradient>
    <linearGradient id="solarGradient" x1="0%" y1="0%" x2="100%" y2="100%">
      <stop offset="0%" stop-color="#FFD700" />
      <stop offset="100%" stop-color="#FFA500" />
    </linearGradient>
    <linearGradient id="windGradient" x1="0%" y1="0%" x2="100%" y2="100%">
      <stop offset="0%" stop-color="#22C55E" />
      <stop offset="100%" stop-color="#16A34A" />
    </linearGradient>
    <filter id="glow" x="-20%" y="-20%" width="140%" height="140%">
      <feGaussianBlur stdDeviation="3" result="blur" />
      <feComposite in="SourceGraphic" in2="blur" operator="over" />
    </filter>
  </defs>
  
  <!-- Main Circle -->
  <circle cx="100" cy="100" r="90" fill="url(#bgGradient)" />
  <circle cx="100" cy="100" r="88" fill="none" stroke="#00C8FF" stroke-width="1" stroke-opacity="0.8" />
  <circle cx="100" cy="100" r="85" fill="none" stroke="#00C8FF" stroke-width="0.5" stroke-opacity="0.5" />
  
  <!-- Earth/Globe Element -->
  <circle cx="100" cy="100" r="65" fill="#0F172A" stroke="#00C8FF" stroke-width="1" stroke-opacity="0.3" />
  <path d="M45,100 Q75,70 100,65 T155,100 T100,135 T45,100" fill="none" stroke="#00C8FF" stroke-width="1" stroke-opacity="0.5" />
  <path d="M100,35 Q130,65 100,100 T100,165" fill="none" stroke="#00C8FF" stroke-width="1" stroke-opacity="0.5" />
  
  <!-- Solar Panel -->
  <g transform="translate(55, 65) rotate(-15)">
    <rect x="0" y="0" width="40" height="50" fill="#1E293B" stroke="url(#solarGradient)" stroke-width="2" rx="3" />
    <line x1="0" y1="10" x2="40" y2="10" stroke="#FFD700" stroke-width="1" />
    <line x1="0" y1="20" x2="40" y2="20" stroke="#FFD700" stroke-width="1" />
    <line x1="0" y1="30" x2="40" y2="30" stroke="#FFD700" stroke-width="1" />
    <line x1="0" y1="40" x2="40" y2="40" stroke="#FFD700" stroke-width="1" />
    <line x1="10" y1="0" x2="10" y2="50" stroke="#FFD700" stroke-width="1" />
    <line x1="20" y1="0" x2="20" y2="50" stroke="#FFD700" stroke-width="1" />
    <line x1="30" y1="0" x2="30" y2="50" stroke="#FFD700" stroke-width="1" />
    <!-- Solar Rays -->
    <g filter="url(#glow)">
      <line x1="-5" y1="-5" x2="-15" y2="-15" stroke="#FFD700" stroke-width="1.5" />
      <line x1="10" y1="-8" x2="10" y2="-20" stroke="#FFD700" stroke-width="1.5" />
      <line x1="25" y1="-8" x2="25" y2="-20" stroke="#FFD700" stroke-width="1.5" />
      <line x1="45" y1="-5" x2="55" y2="-15" stroke="#FFD700" stroke-width="1.5" />
    </g>
  </g>
  
  <!-- Wind Turbine -->
  <g transform="translate(115, 60)">
    <line x1="0" y1="0" x2="0" y2="60" stroke="#FFFFFF" stroke-width="3" />
    <circle cx="0" cy="0" r="5" fill="url(#windGradient)" />
    
    <!-- Turbine blades with animation -->
    <g>
      <animateTransform attributeName="transform" type="rotate" from="0 0 0" to="360 0 0" dur="8s" repeatCount="indefinite" />
      <g transform="rotate(0)">
        <path d="M0,0 L40,-10 C43,-8 45,-4 45,0 Z" fill="url(#windGradient)" opacity="0.9" />
      </g>
      <g transform="rotate(120)">
        <path d="M0,0 L40,-10 C43,-8 45,-4 45,0 Z" fill="url(#windGradient)" opacity="0.9" />
      </g>
      <g transform="rotate(240)">
        <path d="M0,0 L40,-10 C43,-8 45,-4 45,0 Z" fill="url(#windGradient)" opacity="0.9" />
      </g>
    </g>
  </g>
  
  <!-- Energy pulse effect -->
  <circle cx="100" cy="100" r="75" fill="none" stroke="#00C8FF" stroke-width="1" stroke-dasharray="5,5" opacity="0.5">
    <animate attributeName="r" values="75;85;75" dur="3s" repeatCount="indefinite" />
    <animate attributeName="opacity" values="0.5;0.8;0.5" dur="3s" repeatCount="indefinite" />
  </circle>
  
  <!-- Text: RGE with glow -->
  <g filter="url(#glow)">
    <text x="100" y="150" font-family="'Space Grotesk', sans-serif" font-size="24" font-weight="bold" text-anchor="middle" fill="#FFFFFF">RGE</text>
  </g>
  
  <!-- Tagline -->
  <text x="100" y="170" font-family="'Inter', sans-serif" font-size="8" text-anchor="middle" fill="#00C8FF">REVERSE GREEN ENERGY</text>
</svg>